<svg width="28" height="28" viewBox="0 0 28 28" fill="none" xmlns="http://www.w3.org/2000/svg">
<path fill-rule="evenodd" clip-rule="evenodd" d="M10.9478 1.49527C7.44204 2.344 4.12702 5.03819 2.55305 8.31786C0.670857 12.2395 0.67866 15.7142 2.5783 19.6925C5.07948 24.9306 10.9785 27.7875 16.8131 26.5863C20.196 25.8897 23.9228 23.0135 25.4258 19.9392C26.202 18.3515 26.8561 15.9784 26.8619 14.7301C26.8658 13.866 26.6663 13.8251 24.4403 14.2348C21.9869 14.686 19.9064 15.8356 17.9432 17.8246C15.9389 19.8552 15.1026 21.2686 14.4856 23.6674C14.0374 25.41 13.9984 25.4034 13.5566 23.5088C13.1267 21.6654 11.7382 19.2817 10.1904 17.7305C8.59463 16.1308 5.67161 14.5495 3.84909 14.2995C2.76076 14.1504 2.5643 13.7547 3.5785 13.7547C5.43912 13.7547 9.42384 11.3976 11.0577 9.33068C12.7542 7.18432 13.9995 4.03983 14.0094 1.87763C14.0126 1.16478 13.9748 1.13265 13.1522 1.15078C12.679 1.16134 11.6868 1.31626 10.9478 1.49527ZM22.8489 2.60104C20.3831 3.38298 18.3675 4.87088 16.9997 6.91901C16.0091 8.40255 15.1604 10.7881 15.1604 12.0889V12.8995L16.6153 12.7827C19.3416 12.5638 22.4695 10.5753 24.1112 8.01721C24.9797 6.66357 25.7178 4.43986 25.7178 3.17688V2.27927L24.7424 2.29465C24.2058 2.30314 23.3538 2.44108 22.8489 2.60104Z" fill="#40AEF4"/>
</svg>
