<svg width="22" height="22" viewBox="0 0 22 22" fill="none" xmlns="http://www.w3.org/2000/svg">
<g clip-path="url(#clip0_350_967)">
<path d="M7.10476 4.57594C7.03687 4.64653 6.98149 4.72816 6.94098 4.81733L6.93609 4.81244L0.0818693 20.2528L0.0885915 20.2595C-0.0385196 20.5058 0.174147 21.0069 0.609869 21.4432C1.04559 21.8789 1.5467 22.0916 1.79298 21.9645L1.79909 21.9706L17.2394 15.1158L17.2345 15.1103C17.3244 15.0675 17.4069 15.0155 17.4759 14.9459C18.4305 13.9913 16.8825 10.896 14.0195 8.03238C11.1552 5.16871 8.05993 3.62138 7.10476 4.57594Z" fill="#DD2E44"/>
<path d="M7.94442 7.33325L0.254203 19.8647L0.0818693 20.2528L0.0885915 20.2595C-0.0385196 20.5058 0.174147 21.0069 0.609869 21.4432C0.751647 21.585 0.898925 21.6925 1.04315 21.7836L10.3889 10.3888L7.94442 7.33325Z" fill="#EA596E"/>
<path d="M14.0628 7.98468C16.9167 10.8398 18.5013 13.8831 17.6006 14.7827C16.7004 15.6835 13.6571 14.0995 10.8013 11.2456C7.94684 8.39046 6.36284 5.34591 7.263 4.44574C8.16378 3.54557 11.2071 5.12957 14.0628 7.98468Z" fill="#A0041E"/>
<path d="M11.3605 8.31656C11.2982 8.36711 11.2265 8.40476 11.1495 8.42732C11.0725 8.44988 10.9917 8.45689 10.912 8.44795C10.3815 8.3905 9.93543 8.20595 9.62315 7.91445C9.29254 7.60584 9.12937 7.1915 9.17398 6.77656C9.2522 6.04811 9.98309 5.37956 11.2291 5.514C11.7138 5.56595 11.9301 5.41011 11.9374 5.33556C11.946 5.26161 11.7681 5.063 11.2835 5.01045C10.7531 4.953 10.307 4.76845 9.99409 4.47695C9.66348 4.16834 9.4997 3.754 9.54493 3.33906C9.62437 2.61061 10.3546 1.94206 11.5995 2.07711C11.9527 2.115 12.1391 2.04228 12.2179 1.99522C12.2809 1.95672 12.3059 1.92006 12.3084 1.89867C12.3157 1.82472 12.1403 1.62611 11.6545 1.57356C11.5747 1.56503 11.4973 1.54083 11.4268 1.50234C11.3564 1.46386 11.2942 1.41183 11.2439 1.34927C11.1936 1.2867 11.1562 1.21482 11.1337 1.13774C11.1112 1.06066 11.1042 0.97991 11.113 0.900114C11.1215 0.820311 11.1456 0.742964 11.184 0.672514C11.2225 0.602064 11.2744 0.539898 11.337 0.489588C11.3995 0.439277 11.4713 0.401813 11.5484 0.379346C11.6254 0.356879 11.7061 0.349852 11.7859 0.358669C13.0307 0.492502 13.6027 1.301 13.5239 2.03006C13.4444 2.75972 12.7141 3.42706 11.4681 3.29322C11.1149 3.25472 10.9303 3.32806 10.8509 3.37511C10.7879 3.413 10.7623 3.45028 10.7598 3.47106C10.7519 3.54561 10.9285 3.74361 11.4143 3.79617C12.6591 3.93061 13.2311 4.7385 13.1523 5.46756C13.0735 6.196 12.3432 6.86456 11.0978 6.7295C10.7445 6.69161 10.5588 6.76495 10.4793 6.81139C10.4158 6.8505 10.3913 6.88717 10.3889 6.90795C10.3809 6.98189 10.5575 7.1805 11.0428 7.23306C11.1629 7.24603 11.2765 7.29433 11.3692 7.37187C11.4619 7.4494 11.5296 7.55268 11.5636 7.66865C11.5976 7.78462 11.5965 7.90808 11.5603 8.0234C11.5242 8.13873 11.4547 8.24074 11.3605 8.31656Z" fill="#AA8DD8"/>
<path d="M18.7373 13.9681C19.943 13.6277 20.7747 14.1655 20.9727 14.8714C21.1707 15.5766 20.7417 16.4694 19.5366 16.8086C19.0661 16.9406 18.9249 17.1655 18.9439 17.237C18.9646 17.3091 19.2036 17.4276 19.6729 17.295C20.878 16.9559 21.7097 17.4936 21.9077 18.1989C22.107 18.9047 21.6767 19.7963 20.471 20.1361C20.0011 20.2681 19.8593 20.4936 19.8801 20.5651C19.9002 20.6366 20.1386 20.7551 20.6085 20.6231C20.6865 20.599 20.7685 20.5908 20.8497 20.5989C20.9309 20.607 21.0097 20.6313 21.0813 20.6703C21.153 20.7093 21.2161 20.7623 21.267 20.8262C21.3178 20.89 21.3554 20.9633 21.3774 21.0419C21.3995 21.1205 21.4055 21.2027 21.3953 21.2836C21.3851 21.3646 21.3587 21.4427 21.3178 21.5133C21.2769 21.5839 21.2223 21.6456 21.1571 21.6948C21.092 21.7439 21.0177 21.7796 20.9385 21.7995C19.734 22.1387 18.9017 21.6021 18.7025 20.8957C18.5045 20.1905 18.9341 19.2989 20.1404 18.9591C20.611 18.8265 20.7521 18.6022 20.7314 18.5301C20.7118 18.4586 20.4735 18.3394 20.0041 18.4714C18.7978 18.8112 17.9667 18.2746 17.7681 17.5676C17.5695 16.8624 17.9991 15.9707 19.2048 15.6304C19.6741 15.499 19.8153 15.2729 19.7957 15.202C19.775 15.1299 19.5372 15.0113 19.0673 15.1433C18.9888 15.1698 18.9056 15.18 18.823 15.1733C18.7404 15.1666 18.66 15.1432 18.5867 15.1045C18.5134 15.0658 18.4488 15.0126 18.3967 14.9481C18.3447 14.8836 18.3063 14.8092 18.2838 14.7294C18.2614 14.6496 18.2555 14.5661 18.2664 14.4839C18.2773 14.4017 18.3048 14.3226 18.3472 14.2514C18.3896 14.1802 18.4461 14.1184 18.5131 14.0697C18.5802 14.021 18.6565 13.9864 18.7373 13.9681Z" fill="#77B255"/>
<path d="M14.0562 12.3201C13.9296 12.3199 13.8063 12.2805 13.7031 12.2073C13.5998 12.1341 13.5219 12.0306 13.4799 11.9112C13.438 11.7918 13.4341 11.6624 13.4688 11.5407C13.5034 11.419 13.575 11.311 13.6736 11.2317C13.8069 11.1248 16.9846 8.629 21.4757 9.27127C21.5569 9.28046 21.6355 9.30586 21.7068 9.34596C21.778 9.38607 21.8405 9.44007 21.8905 9.50476C21.9405 9.56945 21.9771 9.64352 21.9979 9.72258C22.0188 9.80164 22.0236 9.88408 22.012 9.96503C22.0004 10.046 21.9727 10.1238 21.9305 10.1938C21.8883 10.2639 21.8325 10.3247 21.7664 10.3728C21.7003 10.4209 21.6251 10.4552 21.5455 10.4737C21.4659 10.4923 21.3833 10.4946 21.3028 10.4807C17.3348 9.91722 14.4662 12.1637 14.4381 12.1863C14.3297 12.273 14.195 12.3202 14.0562 12.3201Z" fill="#AA8DD8"/>
<path d="M3.51633 9.77783C3.42108 9.77784 3.32714 9.75558 3.24202 9.71283C3.1569 9.67008 3.08295 9.60803 3.02608 9.53162C2.9692 9.45521 2.93097 9.36657 2.91445 9.27276C2.89792 9.17895 2.90355 9.08258 2.93088 8.99133C3.62327 6.68561 4.25088 3.00611 3.47966 2.04667C3.3935 1.93789 3.26333 1.83094 2.96511 1.85356C2.39189 1.89756 2.44627 3.10694 2.44689 3.11917C2.45465 3.20013 2.44617 3.28182 2.42195 3.35946C2.39773 3.43711 2.35826 3.50913 2.30584 3.57132C2.25343 3.63351 2.18913 3.68461 2.11671 3.72163C2.04429 3.75865 1.96521 3.78084 1.8841 3.7869C1.803 3.79296 1.7215 3.78277 1.64438 3.75693C1.56726 3.73108 1.49608 3.69011 1.435 3.6364C1.37393 3.58269 1.32419 3.51733 1.2887 3.44415C1.25321 3.37097 1.23269 3.29144 1.22833 3.21022C1.16539 2.3675 1.42755 0.744389 2.87344 0.635C3.51877 0.586111 4.05472 0.810388 4.433 1.28094C5.88194 3.08433 4.411 8.31239 4.10177 9.34272C4.06393 9.46855 3.98655 9.57883 3.88109 9.6572C3.77563 9.73558 3.64772 9.77788 3.51633 9.77783Z" fill="#77B255"/>
<path d="M15.5833 6.72225C16.0896 6.72225 16.5 6.31184 16.5 5.80558C16.5 5.29932 16.0896 4.88892 15.5833 4.88892C15.077 4.88892 14.6666 5.29932 14.6666 5.80558C14.6666 6.31184 15.077 6.72225 15.5833 6.72225Z" fill="#5C913B"/>
<path d="M1.22222 12.2223C1.89724 12.2223 2.44444 11.6751 2.44444 11.0001C2.44444 10.325 1.89724 9.77783 1.22222 9.77783C0.547207 9.77783 0 10.325 0 11.0001C0 11.6751 0.547207 12.2223 1.22222 12.2223Z" fill="#9266CC"/>
<path d="M19.8611 12.8333C20.3674 12.8333 20.7778 12.4229 20.7778 11.9167C20.7778 11.4104 20.3674 11 19.8611 11C19.3549 11 18.9445 11.4104 18.9445 11.9167C18.9445 12.4229 19.3549 12.8333 19.8611 12.8333Z" fill="#5C913B"/>
<path d="M14.3611 20.1666C14.8674 20.1666 15.2778 19.7562 15.2778 19.2499C15.2778 18.7437 14.8674 18.3333 14.3611 18.3333C13.8549 18.3333 13.4445 18.7437 13.4445 19.2499C13.4445 19.7562 13.8549 20.1666 14.3611 20.1666Z" fill="#5C913B"/>
<path d="M17.1111 3.66661C17.7862 3.66661 18.3334 3.1194 18.3334 2.44439C18.3334 1.76938 17.7862 1.22217 17.1111 1.22217C16.4361 1.22217 15.8889 1.76938 15.8889 2.44439C15.8889 3.1194 16.4361 3.66661 17.1111 3.66661Z" fill="#FFCC4D"/>
<path d="M19.8611 6.11117C20.3674 6.11117 20.7778 5.70076 20.7778 5.1945C20.7778 4.68824 20.3674 4.27783 19.8611 4.27783C19.3549 4.27783 18.9445 4.68824 18.9445 5.1945C18.9445 5.70076 19.3549 6.11117 19.8611 6.11117Z" fill="#FFCC4D"/>
<path d="M18.0278 8.5555C18.534 8.5555 18.9444 8.1451 18.9444 7.63883C18.9444 7.13257 18.534 6.72217 18.0278 6.72217C17.5215 6.72217 17.1111 7.13257 17.1111 7.63883C17.1111 8.1451 17.5215 8.5555 18.0278 8.5555Z" fill="#FFCC4D"/>
<path d="M4.58329 15.2777C5.08955 15.2777 5.49996 14.8673 5.49996 14.361C5.49996 13.8547 5.08955 13.4443 4.58329 13.4443C4.07703 13.4443 3.66663 13.8547 3.66663 14.361C3.66663 14.8673 4.07703 15.2777 4.58329 15.2777Z" fill="#FFCC4D"/>
</g>
<defs>
<clipPath id="clip0_350_967">
<rect width="22" height="22" fill="white"/>
</clipPath>
</defs>
</svg>
