<svg width="22" height="22" viewBox="0 0 22 22" fill="none" xmlns="http://www.w3.org/2000/svg">
<g clip-path="url(#clip0_350_963)">
<path d="M19.7401 14.8788C19.3154 14.2616 19.5525 13.3694 19.4468 12.3843C19.338 10.7771 18.6474 9.21994 17.3079 7.9745L12.7453 3.73216C12.7453 3.73216 11.8464 2.89555 11.0091 3.79511C10.1731 4.69405 11.0727 5.53066 11.0727 5.53066L13.0001 7.32366L14.6709 8.87711C14.6709 8.87711 14.2523 9.32689 12.4031 7.60722L6.15753 1.798C6.15753 1.798 5.25737 0.961997 4.42076 1.86155C3.58476 2.7605 4.4837 3.59711 4.4837 3.59711L10.3895 9.09039C10.3766 9.07816 9.94276 9.51327 9.93481 9.50594L3.61592 3.62889C3.61592 3.62889 2.71637 2.79227 1.87976 3.69183C1.04314 4.59139 1.9427 5.42739 1.9427 5.42739L8.2622 11.3057C8.26953 11.313 7.86253 11.7726 7.87476 11.7842L2.42364 6.71316C2.42364 6.71316 1.52409 5.87655 0.687478 6.77611C-0.149133 7.67566 0.750423 8.51227 0.750423 8.51227L6.5462 13.9023C6.59937 13.9518 6.24064 14.4572 6.30726 14.5189L2.13092 10.6347C2.13092 10.6347 1.23137 9.79805 0.394756 10.6982C-0.441855 11.5978 0.4577 12.4344 0.4577 12.4344L7.26976 18.7673C8.40703 19.8252 9.57487 20.3605 10.9829 20.5567C11.2695 20.5964 11.6361 20.5964 11.7865 20.6153C12.2613 20.6752 12.6781 20.8439 13.236 21.1861C13.9541 21.6261 15.0315 21.8094 15.6505 21.1476L17.7613 18.8896L19.7101 16.8044C20.3286 16.1432 20.218 15.5724 19.7401 14.8788Z" fill="#EF9645"/>
<path d="M1.19534 21.4049C1.07436 21.4051 0.956034 21.3695 0.855371 21.3024C0.754708 21.2353 0.676251 21.1398 0.629958 21.028C0.583665 20.9162 0.571623 20.7932 0.595362 20.6746C0.6191 20.556 0.677548 20.4471 0.763287 20.3617L2.93334 18.1929C2.99008 18.1361 3.05744 18.0911 3.13157 18.0604C3.2057 18.0297 3.28516 18.0139 3.3654 18.0139C3.44564 18.0139 3.52509 18.0297 3.59922 18.0604C3.67336 18.0911 3.74072 18.1361 3.79745 18.1929C3.85419 18.2496 3.8992 18.317 3.92991 18.3911C3.96061 18.4652 3.97642 18.5447 3.97642 18.6249C3.97642 18.7052 3.96061 18.7846 3.92991 18.8588C3.8992 18.9329 3.85419 19.0002 3.79745 19.057L1.6274 21.2264C1.57069 21.2832 1.50333 21.3282 1.42918 21.3588C1.35504 21.3894 1.27557 21.4051 1.19534 21.4049ZM5.3179 21.9683C5.22026 21.9685 5.12402 21.9452 5.03725 21.9004C4.95047 21.8557 4.87569 21.7908 4.81918 21.7112C4.76267 21.6316 4.72608 21.5396 4.71248 21.4429C4.69888 21.3462 4.70866 21.2477 4.74101 21.1555L5.3344 19.4609C5.35907 19.3829 5.39914 19.3107 5.45225 19.2485C5.50536 19.1863 5.57042 19.1353 5.64357 19.0987C5.71672 19.0621 5.79648 19.0406 5.87812 19.0354C5.95975 19.0301 6.0416 19.0414 6.11882 19.0684C6.19603 19.0954 6.26704 19.1376 6.32763 19.1926C6.38822 19.2475 6.43716 19.3141 6.47155 19.3883C6.50594 19.4625 6.52507 19.5429 6.52782 19.6247C6.53058 19.7064 6.51689 19.7879 6.48756 19.8643L5.89418 21.5589C5.85238 21.6784 5.77448 21.782 5.67125 21.8554C5.56801 21.9287 5.44454 21.9682 5.3179 21.9683ZM0.632509 17.2829C0.488771 17.2821 0.349903 17.2308 0.240271 17.1378C0.130638 17.0448 0.0572427 16.9162 0.0329619 16.7746C0.00868109 16.6329 0.0350657 16.4872 0.107487 16.363C0.179907 16.2389 0.293739 16.1442 0.429009 16.0955L1.95373 15.5572C2.02941 15.5304 2.10961 15.5189 2.18975 15.5231C2.2699 15.5274 2.34842 15.5474 2.42082 15.582C2.49323 15.6167 2.55812 15.6652 2.61177 15.7249C2.66542 15.7846 2.70678 15.8543 2.73351 15.9299C2.76023 16.0056 2.77179 16.0858 2.76752 16.166C2.76325 16.2461 2.74323 16.3246 2.70862 16.397C2.674 16.4694 2.62546 16.5343 2.56577 16.588C2.50608 16.6416 2.43641 16.683 2.36073 16.7097L0.836009 17.2481C0.770639 17.2712 0.701826 17.2829 0.632509 17.2829ZM18.6358 3.98088C18.5149 3.98097 18.3966 3.94516 18.296 3.87798C18.1954 3.8108 18.117 3.71527 18.0707 3.60349C18.0244 3.49172 18.0124 3.36873 18.0361 3.2501C18.0598 3.13146 18.1181 3.02253 18.2038 2.9371L20.3745 0.767656C20.4891 0.653068 20.6446 0.588725 20.8067 0.588783C20.9688 0.58884 21.1243 0.653293 21.2389 0.767962C21.3535 0.882631 21.4178 1.03812 21.4177 1.20023C21.4177 1.36234 21.3532 1.51779 21.2386 1.63238L19.0679 3.80182C19.0113 3.85876 18.944 3.90391 18.8698 3.93465C18.7956 3.96538 18.7161 3.9811 18.6358 3.98088ZM16.0912 2.94382C15.9935 2.94386 15.8973 2.92049 15.8105 2.87567C15.7237 2.83086 15.649 2.7659 15.5925 2.68625C15.536 2.60659 15.4994 2.51455 15.4858 2.41785C15.4722 2.32114 15.482 2.22259 15.5143 2.13043L16.1071 0.435823C16.1606 0.282823 16.2726 0.157336 16.4186 0.0869677C16.5646 0.0165999 16.7326 0.00711543 16.8856 0.0606008C17.0386 0.114086 17.1641 0.22616 17.2345 0.372167C17.3048 0.518175 17.3143 0.686156 17.2608 0.839156L16.6681 2.53377C16.6263 2.65353 16.5484 2.75734 16.445 2.83081C16.3417 2.90429 16.218 2.94378 16.0912 2.94382ZM19.8452 6.47238C19.7015 6.47158 19.5626 6.4202 19.453 6.32723C19.3434 6.23427 19.27 6.10567 19.2457 5.964C19.2214 5.82232 19.2478 5.67662 19.3202 5.55246C19.3926 5.4283 19.5065 5.3336 19.6417 5.28499L21.1658 4.7466C21.3187 4.69263 21.4867 4.70158 21.6329 4.77149C21.7792 4.8414 21.8916 4.96654 21.9456 5.11938C21.9996 5.27222 21.9906 5.44024 21.9207 5.58647C21.8508 5.73271 21.7257 5.84518 21.5728 5.89916L20.0487 6.43755C19.9834 6.4606 19.9145 6.47238 19.8452 6.47238Z" fill="#FA743E"/>
<path d="M21.6272 14.5578C21.2233 13.9272 21.4904 13.0429 21.4182 12.0547C21.3632 10.4451 20.7259 8.86533 19.4291 7.57527L15.012 3.182C15.012 3.182 14.1417 2.31605 13.2746 3.18689C12.4086 4.05711 13.2795 4.92366 13.2795 4.92366L15.1458 6.78083L16.7628 8.38927C16.7628 8.38927 16.3289 8.82438 14.539 7.04361C12.7478 5.26222 8.49264 1.02722 8.49264 1.02722C8.49264 1.02722 7.6218 0.161274 6.75525 1.03211C5.88869 1.90233 6.75952 2.76827 6.75952 2.76827L12.4771 8.45772C12.4649 8.4455 12.0163 8.86533 12.0084 8.85739L5.89114 2.77072C5.89114 2.77072 5.0203 1.90416 4.15375 2.775C3.2878 3.64583 4.15802 4.51177 4.15802 4.51177L10.2759 10.5997C10.2832 10.607 9.8603 11.0525 9.87252 11.0647L4.59558 5.81344C4.59558 5.81344 3.72475 4.9475 2.85819 5.81833C1.99164 6.68916 2.86247 7.55572 2.86247 7.55572L8.47308 13.1382C8.52441 13.1889 8.14919 13.6827 8.21336 13.7469L4.17025 9.72394C4.17025 9.72394 3.29941 8.858 2.43286 9.72883C1.5663 10.5997 2.43714 11.4662 2.43714 11.4662L9.03102 18.0247C10.1322 19.1204 11.2811 19.6942 12.6818 19.9381C12.9672 19.9876 13.3339 19.9998 13.483 20.0236C13.9554 20.0994 14.366 20.2821 14.913 20.6433C15.6157 21.1071 16.6864 21.3265 17.3275 20.6861L19.5134 18.5007L21.5313 16.4828C22.1724 15.8412 22.0813 15.2667 21.6272 14.5578Z" fill="#FFDB5E"/>
</g>
<defs>
<clipPath id="clip0_350_963">
<rect width="22" height="22" fill="white"/>
</clipPath>
</defs>
</svg>
