<svg width="22" height="22" viewBox="0 0 22 22" fill="none" xmlns="http://www.w3.org/2000/svg">
<g clip-path="url(#clip0_350_1038)">
<path d="M21.7568 9.94899C20.1789 7.65061 16.9168 11.0331 10.9633 11.7206C8.75907 11.9748 6.77296 13.8155 4.2124 13.6401C3.16251 13.568 1.69646 10.5473 0.598903 11.0288C0.0342365 11.2769 -0.224875 12.105 0.355681 12.7271L6.80168 20.4185C6.80168 20.4185 7.12924 20.7962 8.2329 20.5347C8.50485 20.6147 12.5932 18.9763 14.957 15.6965C15.5228 14.9112 16.1975 14.2573 16.896 13.711C19.1638 12.0341 21.6291 11.4499 21.6291 11.4499C21.9444 11.1895 22.0183 10.9127 22.0012 10.6725C22.022 10.2717 21.7568 9.94899 21.7568 9.94899Z" fill="#5C913B"/>
<path d="M7.01309 6.27859C4.70126 9.48692 0.652647 11.0068 0.652647 11.0068C-0.102686 11.6466 0.535314 12.4007 0.535314 12.4007L6.91409 19.9534C6.91409 19.9534 7.23309 20.3305 8.30742 20.0689C8.30742 20.0689 12.356 18.5521 14.6673 15.3438C17.05 12.0377 21.3467 10.9939 21.3467 10.9939C22.1014 10.3541 21.464 9.59875 21.464 9.59875L15.0853 2.04725C15.0853 2.04725 14.7663 1.66959 13.6919 1.92992C13.6919 1.92992 9.39581 2.97125 7.01309 6.27859Z" fill="#A7D28B"/>
<path d="M13.4445 11.9166C15.3008 11.9166 16.8056 10.4117 16.8056 8.55545C16.8056 6.69916 15.3008 5.19434 13.4445 5.19434C11.5882 5.19434 10.0834 6.69916 10.0834 8.55545C10.0834 10.4117 11.5882 11.9166 13.4445 11.9166Z" fill="#77B255"/>
<path d="M7.86688 19.5121C7.32849 19.5121 7.1311 19.3116 7.10422 19.2811L1.35427 12.5692C1.34327 12.5564 1.05177 12.2227 1.08722 11.7986C1.1086 11.5413 1.24183 11.3122 1.4826 11.1172L1.5211 11.094C1.55838 11.0793 5.28738 9.54667 7.37738 6.7765C9.58838 3.84561 13.4023 2.58794 13.4402 2.57572C14.5066 2.32761 14.8555 2.68206 14.8928 2.72361L20.567 9.47272C20.5774 9.48372 20.8683 9.81861 20.8328 10.2433C20.8114 10.5 20.6782 10.7292 20.4374 10.9241L20.3769 10.9541C20.3397 10.9632 16.6314 11.8848 14.4834 14.7313C12.3451 17.5669 8.61244 19.4014 8.57516 19.4192C8.2916 19.4864 8.05816 19.5121 7.86688 19.5121ZM7.3346 19.08C7.33522 19.08 7.61083 19.3342 8.47433 19.1338C8.47921 19.1271 12.1465 17.3237 14.2408 14.548C16.3412 11.7644 19.8783 10.7701 20.2706 10.6668C20.4277 10.5318 20.5144 10.3821 20.5285 10.2213C20.5542 9.928 20.3378 9.67561 20.336 9.67317L14.6618 2.92344C14.6606 2.92344 14.3868 2.66983 13.5227 2.87028C13.4977 2.87883 9.77355 4.10839 7.62183 6.96044C5.56483 9.68661 1.97577 11.2352 1.6586 11.3684C1.49483 11.5059 1.4056 11.6593 1.39155 11.8237C1.3671 12.1146 1.58222 12.3657 1.58405 12.3682L7.3346 19.08Z" fill="#5C913B"/>
<path d="M13.002 13.5458L12.9983 17.1758L13.302 17.5364C13.8942 16.9961 14.4631 16.3887 14.9551 15.7055C15.4494 15.0247 16.0304 14.4113 16.6833 13.8807L16.3881 13.5293L13.002 13.5458Z" fill="#FFAC33"/>
<path d="M16.3765 13.5165L8.73396 4.46411C8.11307 4.975 7.51662 5.57083 7.0094 6.27544C6.51379 6.96356 5.9369 7.56917 5.33801 8.10328L6.23146 9.16111L6.23085 9.16172L12.9989 17.1758C13.6188 16.6262 14.1772 16.0109 14.6642 15.3407C15.1714 14.6367 15.7672 14.0414 16.3875 13.5306L16.3765 13.5165Z" fill="#FFE8B6"/>
<path d="M8.84825 13.7836C7.89675 12.6567 5.88253 14.4852 5.30808 13.805C5.03003 13.4756 5.20908 13.0485 5.57453 12.7405C6.18869 12.221 6.63175 12.5235 6.9098 12.2882C7.10719 12.122 7.0968 11.9185 6.97947 11.7786C6.70691 11.4565 6.01025 11.6246 5.4688 11.9375L5.20541 11.6258C5.1254 11.5367 5.01386 11.4823 4.89441 11.474C4.77496 11.4657 4.65698 11.5043 4.56546 11.5815C4.47395 11.6587 4.41609 11.7685 4.40413 11.8877C4.39218 12.0068 4.42707 12.1259 4.50141 12.2198L4.77397 12.5431C4.36025 13.0918 4.21969 13.8203 4.70919 14.399C5.62341 15.4807 7.66269 13.6828 8.30436 14.443C8.5268 14.707 8.46447 15.2106 7.99636 15.6053C7.2948 16.1987 6.65925 15.9207 6.37386 16.1615C6.23453 16.2782 6.20947 16.5006 6.35797 16.6772C6.59447 16.9565 7.34797 16.8966 8.07214 16.4456C8.07336 16.4468 8.07336 16.4481 8.07336 16.4493L8.37097 16.8013C8.4094 16.8496 8.45713 16.8897 8.51135 16.9193C8.56557 16.9488 8.62516 16.9672 8.6866 16.9733C8.74805 16.9794 8.81009 16.9731 8.86905 16.9548C8.92802 16.9364 8.9827 16.9065 9.02987 16.8666C9.07704 16.8268 9.11573 16.7779 9.14365 16.7228C9.17157 16.6677 9.18815 16.6076 9.19241 16.546C9.19668 16.4844 9.18853 16.4226 9.16846 16.3642C9.1484 16.3058 9.11681 16.252 9.07558 16.2061L8.77797 15.8541C8.77491 15.8504 8.77003 15.848 8.76636 15.8443C9.25464 15.2466 9.41964 14.4589 8.84825 13.7836Z" fill="#5C913B"/>
<path d="M19.8342 19.9148C19.8397 19.9099 19.8458 19.9062 19.8513 19.9019C19.8928 19.8604 19.9252 19.8127 19.9619 19.7669C19.9876 19.7351 20.0163 19.7045 20.0401 19.6722C20.0615 19.6416 20.0792 19.6104 20.0988 19.5793C20.9666 18.2428 20.3982 15.9768 18.6804 14.2583C16.962 12.5399 14.6953 11.9715 13.3595 12.8399C13.3277 12.8589 13.2965 12.8766 13.266 12.8986C13.2336 12.9224 13.2024 12.9512 13.1718 12.9762C13.1266 13.0135 13.079 13.0453 13.0368 13.0874C13.0313 13.0929 13.0276 13.099 13.0233 13.1045C13.0166 13.1113 13.0087 13.1155 13.0013 13.1229L13.005 13.1259C12.3939 13.7749 12.3866 14.779 13.0013 15.3944C13.6173 16.0104 14.6208 16.0018 15.2704 15.3907L15.2771 15.398C15.2643 15.4103 15.2502 15.4182 15.238 15.4304C14.5908 16.0776 14.5756 17.1098 15.202 17.7374C15.829 18.3638 16.8623 18.3485 17.5089 17.7013C17.5211 17.6891 17.5291 17.675 17.5413 17.6622L17.548 17.6695C16.9369 18.3185 16.929 19.3226 17.545 19.9386C18.1603 20.5534 19.1638 20.546 19.8128 19.9349L19.8165 19.9386C19.8226 19.93 19.8275 19.9221 19.8342 19.9148Z" fill="#E1E8ED"/>
<path d="M13.0027 15.4189C13.5563 15.972 14.421 16.0172 15.0621 15.5784C15.3304 15.1201 15.4074 14.6844 15.4074 14.5481C14.0587 15.554 12.8548 14.5536 12.5853 13.9553C12.4734 14.4723 12.6091 15.0248 13.0027 15.4189ZM17.4632 17.7656C17.6453 17.5095 17.7864 17.262 17.8524 17.0946C16.9938 17.8817 15.3524 17.3054 14.8549 16.0569C14.6362 16.6375 14.748 17.306 15.2039 17.7619C15.8162 18.3743 16.8135 18.3694 17.4632 17.7656ZM19.8184 19.9625L19.8361 19.9405C19.8422 19.9357 19.8483 19.932 19.8532 19.9271C19.8954 19.8855 19.9278 19.8379 19.9638 19.7927C19.9901 19.7603 20.0182 19.7303 20.042 19.6973C20.064 19.6674 20.0818 19.6356 20.1013 19.6044C20.141 19.5433 20.1624 19.4712 20.196 19.4064C18.6512 20.0976 17.498 18.9249 17.1747 18.34C16.9944 18.9004 17.1118 19.528 17.5469 19.9638C18.1617 20.5792 19.1651 20.5718 19.8147 19.9601L19.8184 19.9625Z" fill="#CCD6DD"/>
<path d="M8.52868 7.63761L8.54579 7.62416C8.58796 7.58261 8.62035 7.53494 8.6564 7.48972C8.68207 7.45794 8.71018 7.428 8.73401 7.395C8.75601 7.36444 8.77373 7.33327 8.79329 7.30211C9.66107 5.96561 9.09212 3.699 7.37429 1.98116C5.65585 0.262718 3.38985 -0.306227 2.05335 0.561551C2.02218 0.581107 1.9904 0.598829 1.95985 0.620829C1.92685 0.644662 1.8969 0.672773 1.86512 0.69844C1.8199 0.735107 1.77223 0.766884 1.73068 0.809051C1.72518 0.814551 1.72151 0.821273 1.71723 0.826162C1.71051 0.832273 1.70196 0.837773 1.69523 0.844495L1.69829 0.847551C1.08718 1.49655 1.07985 2.50061 1.69523 3.116C2.31062 3.73138 3.31468 3.72405 3.96368 3.11294L3.9704 3.11966C3.95757 3.13127 3.94351 3.13983 3.93129 3.15205C3.28412 3.79922 3.26885 4.83138 3.89585 5.459C4.52285 6.08661 5.55562 6.07072 6.20279 5.42355C6.21501 5.41133 6.22296 5.39727 6.23518 5.38444L6.2419 5.39116C5.63079 6.04016 5.62285 7.04422 6.23884 7.65961C6.85423 8.275 7.85768 8.26766 8.50668 7.65594L8.50973 7.65961C8.51646 7.65288 8.52196 7.64494 8.52868 7.63761Z" fill="#E1E8ED"/>
<path d="M1.69467 3.11669C2.24834 3.67036 3.11306 3.71558 3.75412 3.27558C4.02239 2.81724 4.09878 2.38213 4.09878 2.24586C2.75067 3.25113 1.54617 2.25013 1.27728 1.65186C1.16545 2.16947 1.30112 2.72252 1.69467 3.11669ZM6.15639 5.46213C6.33789 5.20608 6.47906 4.9598 6.54445 4.79236C5.68523 5.57947 4.04378 5.00258 3.54695 3.75408C3.32817 4.33463 3.44 5.00319 3.89528 5.45908C4.50884 6.07202 5.50678 6.06652 6.15639 5.46213ZM8.50978 7.6603C8.5165 7.65358 8.522 7.64563 8.52812 7.6383L8.54523 7.62486C8.58739 7.5833 8.61978 7.53563 8.65584 7.49041C8.6815 7.45863 8.70962 7.42869 8.73345 7.39569C8.75545 7.36513 8.77317 7.33397 8.79273 7.3028C8.83245 7.24169 8.85384 7.16897 8.88745 7.10419C7.34256 7.79536 6.18939 6.62324 5.86612 6.03841C5.68584 6.5988 5.80317 7.22641 6.23828 7.66152C6.85367 8.27691 7.85711 8.26958 8.50611 7.65786L8.50978 7.6603Z" fill="#CCD6DD"/>
</g>
<defs>
<clipPath id="clip0_350_1038">
<rect width="22" height="22" fill="white"/>
</clipPath>
</defs>
</svg>
