<svg width="22" height="22" viewBox="0 0 22 22" fill="none" xmlns="http://www.w3.org/2000/svg">
<g clip-path="url(#clip0_350_1109)">
<path d="M17.6244 10.7787C17.0213 11.4167 16.6265 12.653 16.7457 13.5244L17.2908 17.4606C17.4112 18.3327 16.8624 18.736 16.071 18.3583L12.4954 16.6497C11.704 16.2708 10.4127 16.2763 9.62317 16.6607L6.06283 18.3974C5.27389 18.7818 4.72267 18.3816 4.83633 17.5101L5.3515 13.5691C5.46517 12.697 5.06122 11.4644 4.45317 10.8307L1.70683 7.96578C1.09817 7.33205 1.30656 6.68122 2.16822 6.5205L6.061 5.7945C6.92267 5.63378 7.96522 4.86683 8.37895 4.09011L10.2434 0.584164C10.6559 -0.192558 11.3367 -0.194391 11.7547 0.578664L13.6461 4.06994C14.0653 4.843 15.1128 5.602 15.9769 5.75539L19.8746 6.45266C20.7374 6.60666 20.9507 7.25566 20.3476 7.89428L17.6244 10.7787Z" fill="#FFAC33"/>
<path d="M5.97853 1.3328C6.6037 2.1963 7.47331 4.33763 7.02781 4.66152C6.58292 4.98602 4.82353 3.4943 4.19837 2.6308C3.57381 1.7673 3.62698 1.00035 4.11831 0.642242C4.60964 0.28352 5.35275 0.469909 5.97853 1.3328ZM17.8023 2.6308C17.1778 3.4943 15.4184 4.98663 14.9723 4.66091C14.5268 4.33702 15.397 2.1963 16.0228 1.33341C16.6479 0.469298 17.3904 0.282909 17.8824 0.642242C18.3731 1.00035 18.4263 1.7673 17.8023 2.6308ZM10.1598 20.3445C10.1591 19.2775 10.7085 17.0316 11.2604 17.0316C11.8085 17.0316 12.3591 19.2775 12.3585 20.3439C12.3585 21.4115 11.8672 22.0012 11.2585 22C10.6511 22.0012 10.1598 21.4121 10.1598 20.3445ZM20.0469 14.6844C19.0355 14.355 17.0781 13.1364 17.2486 12.6096C17.4179 12.0853 19.7157 12.2546 20.7259 12.5846C21.7373 12.9146 22.1443 13.5654 21.956 14.1466C21.7678 14.7271 21.0583 15.0144 20.0469 14.6844ZM1.27298 12.5852C2.28437 12.2552 4.58153 12.0859 4.75264 12.6121C4.92131 13.1358 2.96331 14.3562 1.95314 14.685C0.942366 15.015 0.231032 14.7277 0.0446435 14.1472C-0.143579 13.5666 0.260977 12.9158 1.27298 12.5852Z" fill="#FFD983"/>
</g>
<defs>
<clipPath id="clip0_350_1109">
<rect width="22" height="22" fill="white"/>
</clipPath>
</defs>
</svg>
