<svg width="22" height="22" viewBox="0 0 22 22" fill="none" xmlns="http://www.w3.org/2000/svg">
<g clip-path="url(#clip0_350_1176)">
<path d="M11 21.9999C16.7376 21.9999 21.3889 17.3487 21.3889 11.6111C21.3889 5.87343 16.7376 1.22217 11 1.22217C5.26235 1.22217 0.611084 5.87343 0.611084 11.6111C0.611084 17.3487 5.26235 21.9999 11 21.9999Z" fill="#F4900C"/>
<path d="M11 20.7778C16.7376 20.7778 21.3889 16.1265 21.3889 10.3889C21.3889 4.65126 16.7376 0 11 0C5.26235 0 0.611084 4.65126 0.611084 10.3889C0.611084 16.1265 5.26235 20.7778 11 20.7778Z" fill="#FFCC4D"/>
<path d="M11 19.5554C15.7251 19.5554 19.5556 15.725 19.5556 10.9999C19.5556 6.27479 15.7251 2.44434 11 2.44434C6.27491 2.44434 2.44446 6.27479 2.44446 10.9999C2.44446 15.725 6.27491 19.5554 11 19.5554Z" fill="#FFE8B6"/>
<path d="M11 18.9444C15.7251 18.9444 19.5556 15.1139 19.5556 10.3888C19.5556 5.6637 15.7251 1.83325 11 1.83325C6.27491 1.83325 2.44446 5.6637 2.44446 10.3888C2.44446 15.1139 6.27491 18.9444 11 18.9444Z" fill="#FFAC33"/>
<path d="M5.83179 6.63413C5.83179 6.30107 6.15873 6.16785 6.15873 6.16785L10.9731 3.90674L15.8332 6.16785C15.8332 6.16785 16.1681 6.2424 16.1681 6.63657V7.02829H5.83179V6.63413Z" fill="#FFE8B6"/>
<path d="M15.8455 7.84419C15.8455 7.4873 15.5369 7.19824 15.1568 7.19824H6.80108C6.42036 7.19824 6.15513 7.4873 6.15513 7.84419C6.15513 8.0868 6.2798 8.2958 6.47841 8.40641V8.81341H7.7703V8.49013H9.06219V8.81341H10.3541V8.49013H11.646V8.81341H12.9379V8.49013H14.2297V8.81341H15.5222V8.38991C15.716 8.27502 15.8455 8.07396 15.8455 7.84419ZM16.8141 14.6666C16.8141 14.7952 16.7631 14.9184 16.6722 15.0093C16.5813 15.1002 16.4581 15.1512 16.3295 15.1512H5.67052C5.542 15.1512 5.41873 15.1002 5.32785 15.0093C5.23697 14.9184 5.18591 14.7952 5.18591 14.6666C5.18591 14.5381 5.23697 14.4148 5.32785 14.324C5.41873 14.2331 5.542 14.182 5.67052 14.182H16.3301C16.5972 14.182 16.8141 14.399 16.8141 14.6666Z" fill="#F4900C"/>
<path d="M16.1681 7.4556C16.1681 7.54134 16.1341 7.62357 16.0734 7.68419C16.0128 7.74482 15.9306 7.77888 15.8449 7.77888H6.15447C6.07216 7.77382 5.99489 7.73755 5.9384 7.67748C5.88191 7.61741 5.85046 7.53806 5.85046 7.4556C5.85046 7.37314 5.88191 7.29379 5.9384 7.23372C5.99489 7.17365 6.07216 7.13739 6.15447 7.13232L15.8449 7.13416C15.8872 7.134 15.9292 7.14219 15.9683 7.15826C16.0075 7.17434 16.0431 7.19798 16.0732 7.22784C16.1032 7.25769 16.127 7.29318 16.1433 7.33226C16.1596 7.37134 16.1681 7.41326 16.1681 7.4556ZM7.44697 7.83082H14.5536V8.5556H7.44697V7.83082Z" fill="#F4900C"/>
<path d="M7.76967 12.7289C7.76967 13.0858 7.57656 13.3749 7.33884 13.3749H6.90801C6.67028 13.3749 6.47717 13.0858 6.47717 12.7289V7.83149C6.47717 7.4746 6.67028 7.18555 6.90801 7.18555H7.33884C7.57656 7.18555 7.76967 7.4746 7.76967 7.83149V12.7289ZM15.5222 12.7289C15.5222 13.0858 15.3297 13.3749 15.0914 13.3749H14.6606C14.4228 13.3749 14.2297 13.0858 14.2297 12.7289V7.83149C14.2297 7.4746 14.4222 7.18555 14.6606 7.18555H15.0914C15.3291 7.18555 15.5222 7.4746 15.5222 7.83149V12.7289ZM10.3541 12.7289C10.3541 13.0858 10.161 13.3749 9.92323 13.3749H9.4924C9.25467 13.3749 9.06156 13.0858 9.06156 12.7289V7.83149C9.06156 7.4746 9.25467 7.18555 9.4924 7.18555H9.92323C10.161 7.18555 10.3541 7.4746 10.3541 7.83149V12.7289ZM12.9378 12.7289C12.9378 13.0858 12.7447 13.3749 12.507 13.3749H12.0768C11.8391 13.3749 11.646 13.0858 11.646 12.7289V7.83149C11.646 7.4746 11.8391 7.18555 12.0768 7.18555H12.507C12.7447 7.18555 12.9378 7.4746 12.9378 7.83149V12.7289Z" fill="#FFD983"/>
<path d="M15.8455 13.0515C15.8455 13.4084 15.5565 13.6974 15.1996 13.6974H6.8011C6.62978 13.6974 6.46548 13.6294 6.34434 13.5082C6.22321 13.3871 6.15515 13.2228 6.15515 13.0515C6.15515 12.8801 6.22321 12.7158 6.34434 12.5947C6.46548 12.4736 6.62978 12.4055 6.8011 12.4055H15.1996C15.5559 12.4055 15.8455 12.6946 15.8455 13.0515Z" fill="#FFCC4D"/>
<path d="M16.4914 13.6975C16.4914 14.0543 16.2024 14.3434 15.8455 14.3434H6.15449C5.98317 14.3434 5.81888 14.2753 5.69774 14.1542C5.5766 14.0331 5.50854 13.8688 5.50854 13.6975C5.50854 13.5261 5.5766 13.3618 5.69774 13.2407C5.81888 13.1196 5.98317 13.0515 6.15449 13.0515H15.8449C16.2018 13.0515 16.4914 13.3406 16.4914 13.6975Z" fill="#FFD983"/>
<path d="M16.8141 14.1821C16.8141 14.3106 16.7631 14.4339 16.6722 14.5248C16.5813 14.6157 16.4581 14.6667 16.3295 14.6667H5.67052C5.60688 14.6667 5.54387 14.6542 5.48507 14.6298C5.42628 14.6055 5.37285 14.5698 5.32785 14.5248C5.28285 14.4798 5.24716 14.4264 5.2228 14.3676C5.19845 14.3088 5.18591 14.2458 5.18591 14.1821C5.18591 14.1185 5.19845 14.0555 5.2228 13.9967C5.24716 13.9379 5.28285 13.8845 5.32785 13.8394C5.37285 13.7944 5.42628 13.7588 5.48507 13.7344C5.54387 13.71 5.60688 13.6975 5.67052 13.6975H16.3301C16.5972 13.6975 16.8141 13.9145 16.8141 14.1821Z" fill="#FFD983"/>
<path d="M15.8455 7.50801C15.8455 7.15112 15.5369 6.86206 15.1568 6.86206H6.8011C6.42037 6.86206 6.15515 7.15112 6.15515 7.50801C6.15515 7.75062 6.27982 7.95962 6.47843 8.07023V8.47723H7.77032V8.15395H9.06221V8.47723H10.3541V8.15395H11.646V8.47723H12.9379V8.15395H14.2298V8.47723H15.5223V8.05373C15.716 7.93884 15.8455 7.73778 15.8455 7.50801Z" fill="#FFCC4D"/>
<path d="M5.83179 7.00522C5.83179 6.67217 6.15873 6.53894 6.15873 6.53894L10.9731 4.27783L15.8332 6.53894C15.8332 6.53894 16.1681 6.6135 16.1681 7.00767V7.1855H5.83179V7.00522Z" fill="#FFD983"/>
<path d="M11 5.09839C11 5.09839 7.66642 6.66956 7.33398 6.81133C7.00092 6.9525 7.11214 7.18472 7.33459 7.18472H14.6496C14.993 7.18472 14.9118 6.92255 14.6392 6.78078C14.3666 6.63961 11 5.09839 11 5.09839Z" fill="#FFAC33"/>
<path d="M16.1681 7.18485C16.1681 7.27059 16.1341 7.35282 16.0734 7.41344C16.0128 7.47407 15.9306 7.50813 15.8449 7.50813H6.15447C6.07216 7.50307 5.99489 7.4668 5.9384 7.40673C5.88191 7.34666 5.85046 7.26731 5.85046 7.18485C5.85046 7.10239 5.88191 7.02304 5.9384 6.96297C5.99489 6.9029 6.07216 6.86664 6.15447 6.86157L15.8449 6.86341C15.8872 6.86324 15.9292 6.87144 15.9683 6.88751C16.0075 6.90359 16.0431 6.92723 16.0732 6.95708C16.1032 6.98694 16.127 7.02243 16.1433 7.06151C16.1596 7.10059 16.1681 7.14251 16.1681 7.18485Z" fill="#FFD983"/>
</g>
<defs>
<clipPath id="clip0_350_1176">
<rect width="22" height="22" fill="white"/>
</clipPath>
</defs>
</svg>
