<svg width="22" height="22" viewBox="0 0 22 22" fill="none" xmlns="http://www.w3.org/2000/svg">
<g clip-path="url(#clip0_350_1091)">
<path d="M14.4534 14.2372L7.76233 7.5461L13.4982 2.7666L19.2335 8.50188L14.4534 14.2372Z" fill="#BE1931"/>
<path d="M21.1445 8.50174C20.8936 8.75295 20.5957 8.95223 20.2678 9.0882C19.9398 9.22417 19.5883 9.29416 19.2332 9.29416C18.8782 9.29416 18.5267 9.22417 18.1987 9.0882C17.8708 8.95223 17.5729 8.75295 17.322 8.50174L13.4983 4.67863C13.0111 4.16753 12.7431 3.48618 12.7515 2.78014C12.76 2.0741 13.0442 1.39935 13.5434 0.90003C14.0426 0.400709 14.7173 0.116409 15.4234 0.107864C16.1294 0.0993195 16.8108 0.367207 17.322 0.8543L21.1445 4.67863C21.3956 4.92964 21.5947 5.22764 21.7306 5.55563C21.8665 5.88362 21.9365 6.23517 21.9365 6.59019C21.9365 6.94521 21.8665 7.29676 21.7306 7.62475C21.5947 7.95274 21.3956 8.25074 21.1445 8.50174Z" fill="#DD2E44"/>
<path d="M8.5556 10.8918C8.5556 10.8918 -0.362346 21.4066 0.114932 21.8857C0.592821 22.3642 11.1082 13.4445 11.1082 13.4445L8.5556 10.8918Z" fill="#99AAB5"/>
<path d="M15.4092 17.1056C15.1582 17.3569 14.8601 17.5562 14.532 17.6922C14.2039 17.8282 13.8522 17.8982 13.497 17.8982C13.1419 17.8982 12.7902 17.8282 12.4621 17.6922C12.134 17.5562 11.8359 17.3569 11.5849 17.1056L4.89443 10.4139C4.40154 9.90393 4.12876 9.22068 4.13487 8.51143C4.14098 7.80219 4.42549 7.12374 4.9271 6.62229C5.42871 6.12084 6.10725 5.83654 6.8165 5.83066C7.52574 5.82478 8.20891 6.09778 8.71877 6.59084L15.4092 13.2819C15.6603 13.5329 15.8595 13.831 15.9954 14.159C16.1313 14.4871 16.2012 14.8387 16.2012 15.1938C16.2012 15.5488 16.1313 15.9004 15.9954 16.2285C15.8595 16.5565 15.6603 16.8546 15.4092 17.1056Z" fill="#DD2E44"/>
</g>
<defs>
<clipPath id="clip0_350_1091">
<rect width="22" height="22" fill="white"/>
</clipPath>
</defs>
</svg>
