<svg width="22" height="22" viewBox="0 0 22 22" fill="none" xmlns="http://www.w3.org/2000/svg">
<g clip-path="url(#clip0_350_1068)">
<path d="M0.611084 10.3889L5.49997 6.11108L15.2778 6.7222L15.8889 16.5L11.6111 21.3889C11.6111 21.3889 11.6117 17.7228 7.94442 14.0555C4.27714 10.3883 0.611084 10.3889 0.611084 10.3889Z" fill="#A0041E"/>
<path d="M0.594616 21.3889C0.594616 21.3889 0.572616 16.5129 2.41878 14.6667C4.26495 12.8206 9.16667 12.9477 9.16667 12.9477C9.16667 12.9477 9.16606 17.7223 7.33273 19.5556C5.49939 21.3889 0.594616 21.3889 0.594616 21.3889Z" fill="#FFAC33"/>
<path d="M5.49938 18.9446C6.84941 18.9446 7.94382 17.8501 7.94382 16.5001C7.94382 15.1501 6.84941 14.0557 5.49938 14.0557C4.14935 14.0557 3.05493 15.1501 3.05493 16.5001C3.05493 17.8501 4.14935 18.9446 5.49938 18.9446Z" fill="#FFCC4D"/>
<path d="M21.9994 0C21.9994 0 15.8883 0 8.55494 6.11111C4.88828 9.16667 4.88828 14.6667 6.1105 15.8889C7.33272 17.1111 12.8327 17.1111 15.8883 13.4444C21.9994 6.11111 21.9994 0 21.9994 0Z" fill="#55ACEE"/>
<path d="M16.4993 3.05566C16.029 3.05622 15.5687 3.19263 15.174 3.44847C14.7793 3.70432 14.4669 4.06873 14.2743 4.49789C14.589 4.35383 14.931 4.27882 15.2771 4.27789C15.9254 4.27789 16.5472 4.53543 17.0056 4.99385C17.464 5.45227 17.7216 6.07402 17.7216 6.72233C17.7216 7.08044 17.6403 7.41839 17.5022 7.72455C17.9313 7.53211 18.2956 7.21978 18.5514 6.82515C18.8071 6.43051 18.9434 5.97037 18.9438 5.50011C18.9438 4.8518 18.6863 4.23005 18.2278 3.77163C17.7694 3.3132 17.1477 3.05566 16.4993 3.05566Z" fill="black"/>
<path d="M4.88892 17.1111C4.88892 17.1111 4.88892 14.6666 5.50003 14.0555C6.11114 13.4444 13.4451 7.33392 14.0556 7.94442C14.6661 8.55492 8.55497 15.8889 7.94386 16.5C7.33275 17.1111 4.88892 17.1111 4.88892 17.1111Z" fill="#A0041E"/>
</g>
<defs>
<clipPath id="clip0_350_1068">
<rect width="22" height="22" fill="white"/>
</clipPath>
</defs>
</svg>
