<svg width="22" height="22" viewBox="0 0 22 22" fill="none" xmlns="http://www.w3.org/2000/svg">
<g clip-path="url(#clip0_350_1075)">
<path d="M10.3889 21.9999C16.1265 21.9999 20.7778 17.3487 20.7778 11.6111C20.7778 5.87343 16.1265 1.22217 10.3889 1.22217C4.65126 1.22217 0 5.87343 0 11.6111C0 17.3487 4.65126 21.9999 10.3889 21.9999Z" fill="#FFCC4D"/>
<path d="M10.9994 17.4166C11.6745 17.4166 12.2217 16.7326 12.2217 15.8889C12.2217 15.0451 11.6745 14.3611 10.9994 14.3611C10.3244 14.3611 9.77722 15.0451 9.77722 15.8889C9.77722 16.7326 10.3244 17.4166 10.9994 17.4166Z" fill="#664500"/>
<path d="M4.95674 13.0674C4.84753 13.0673 4.74035 13.0379 4.64634 12.9823C4.55234 12.9267 4.47495 12.8469 4.42223 12.7513C4.36951 12.6556 4.34339 12.5476 4.34657 12.4384C4.34976 12.3293 4.38214 12.223 4.44035 12.1306C5.00013 11.2426 6.70208 9.724 9.1398 10.3204C9.29398 10.362 9.42579 10.4622 9.50701 10.5997C9.58824 10.7371 9.61244 10.9009 9.57443 11.056C9.53641 11.2111 9.43921 11.3451 9.30362 11.4295C9.16803 11.5138 9.00482 11.5417 8.84891 11.5072C6.64647 10.9682 5.48658 12.7637 5.47497 12.782C5.41977 12.8695 5.34328 12.9416 5.25265 12.9915C5.16202 13.0414 5.06021 13.0675 4.95674 13.0674ZM12.2736 10.7806C12.1475 10.7807 12.0244 10.7418 11.9213 10.6692C11.8182 10.5966 11.7401 10.4939 11.6976 10.3752C11.6552 10.2564 11.6505 10.1274 11.6843 10.0059C11.718 9.88444 11.7885 9.77635 11.8861 9.6965C13.827 8.10517 16.0185 8.74194 16.9064 9.30172C16.9744 9.34442 17.0333 9.40008 17.0797 9.46554C17.1262 9.53099 17.1593 9.60496 17.1772 9.68322C17.1951 9.76147 17.1974 9.84248 17.1839 9.92162C17.1705 10.0008 17.1416 10.0765 17.0989 10.1444C17.0562 10.2124 17.0006 10.2713 16.9351 10.3178C16.8696 10.3642 16.7957 10.3974 16.7174 10.4152C16.6392 10.4331 16.5582 10.4354 16.479 10.422C16.3999 10.4085 16.3242 10.3796 16.2562 10.3369C16.1719 10.2856 14.3911 9.22289 12.6604 10.6419C12.5515 10.7318 12.4147 10.7808 12.2736 10.7806Z" fill="#664500"/>
<path d="M8.15595 19.1112C8.0851 19.1113 8.01521 19.0949 7.95177 19.0633C7.88833 19.0318 7.83307 18.986 7.79031 18.9295C7.74756 18.873 7.71848 18.8074 7.70537 18.7378C7.69225 18.6681 7.69546 18.5964 7.71473 18.5282C7.98178 17.5871 7.87239 16.6772 7.41528 16.0312C7.11156 15.6022 6.67889 15.3401 6.22789 15.3114C5.97489 15.2961 5.783 15.0779 5.79889 14.8255C5.81478 14.5731 6.03173 14.3666 6.28473 14.3971C7.01378 14.4424 7.69823 14.8451 8.16267 15.5014C8.7805 16.3747 8.93878 17.5688 8.59595 18.7776C8.56894 18.8735 8.51135 18.958 8.43193 19.0182C8.35252 19.0785 8.25562 19.1111 8.15595 19.1112ZM14.9008 17.2406C14.8112 17.2407 14.7236 17.2144 14.649 17.1649C13.9358 16.6943 13.5368 15.8711 13.5539 14.9068C13.5716 13.9076 14.0483 12.98 14.7663 12.5424C14.8177 12.511 14.8748 12.4901 14.9342 12.4808C14.9937 12.4715 15.0544 12.4741 15.1129 12.4883C15.1714 12.5026 15.2265 12.5283 15.275 12.5639C15.3236 12.5995 15.3646 12.6443 15.3958 12.6958C15.4272 12.7472 15.4481 12.8042 15.4574 12.8637C15.4667 12.9232 15.4641 12.9839 15.4499 13.0424C15.4356 13.1009 15.4099 13.156 15.3743 13.2045C15.3387 13.253 15.2939 13.2941 15.2424 13.3252C14.7932 13.599 14.4822 14.2413 14.4699 14.9227C14.4577 15.5674 14.7077 16.1058 15.1532 16.3997C15.2354 16.454 15.298 16.5334 15.3316 16.626C15.3652 16.7187 15.3681 16.8197 15.3397 16.9141C15.3114 17.0084 15.2534 17.0912 15.1743 17.15C15.0953 17.2088 14.9993 17.2406 14.9008 17.2406Z" fill="#E2A62D"/>
<path d="M10.4983 1.66212C10.467 1.63132 10.4264 1.61177 10.3828 1.60651C10.3828 1.60651 0.651438 -0.240882 0.230382 0.130673C-0.190062 0.50284 0.452216 10.3876 0.452216 10.3876C0.455271 10.4371 0.466271 10.4792 0.49316 10.5092C0.862271 10.9272 3.40083 9.28451 6.16366 6.8419C8.9271 4.39867 10.8674 2.08012 10.4983 1.66212Z" fill="#DD2E44"/>
<path d="M0.213286 0.165715C0.202246 0.18963 0.194437 0.214907 0.190063 0.240882C0.28723 1.07871 1.2259 7.97266 1.81073 10.1274C2.68829 9.63671 3.5799 8.96999 4.62734 8.13949C3.73756 6.51088 0.707675 0.089326 0.213286 0.165715Z" fill="#EA596E"/>
<path d="M18.2735 17.8621L11.8122 17.0658C11.1217 17.0035 9.90738 16.9973 9.96972 15.9035C10.0266 14.9116 11.2164 15.0644 12.0958 15.1946L18.5968 16.2787L18.2735 17.8621Z" fill="#3B88C3"/>
<path d="M18.5962 16.2794L16.016 15.837C15.7142 15.7826 15.4453 16.2324 15.4318 16.7084C15.4165 17.2377 15.5705 17.5053 15.8755 17.5677L18.4079 17.8806L18.5962 16.2794Z" fill="#88C9F9"/>
<path d="M21.3388 16.0974L19.7365 17.5707L16.8722 14.4559L18.4745 12.9825C18.8764 12.6151 19.4073 12.4216 19.9513 12.4444C20.4953 12.4672 21.0082 12.7044 21.3779 13.1041L21.4604 13.194C21.8277 13.5959 22.021 14.1268 21.9983 14.6707C21.9755 15.2147 21.7384 15.7276 21.3388 16.0974Z" fill="#3B88C3"/>
<path d="M19.7354 17.5716C20.4236 16.9389 20.3404 15.7286 19.5495 14.8685C18.7587 14.0083 17.5597 13.824 16.8715 14.4568C16.1833 15.0896 16.2665 16.2998 17.0573 17.16C17.8482 18.0201 19.0472 18.2044 19.7354 17.5716Z" fill="#88C9F9"/>
<path d="M19.1625 16.9484C19.5066 16.632 19.401 15.9572 18.9265 15.4412C18.452 14.9252 17.7884 14.7633 17.4443 15.0797C17.1002 15.3961 17.2059 16.0709 17.6804 16.5869C18.1548 17.103 18.8184 17.2648 19.1625 16.9484Z" fill="#226699"/>
<path d="M1.52775 21.389C2.03401 21.389 2.44442 20.9786 2.44442 20.4723C2.44442 19.9661 2.03401 19.5557 1.52775 19.5557C1.02149 19.5557 0.611084 19.9661 0.611084 20.4723C0.611084 20.9786 1.02149 21.389 1.52775 21.389Z" fill="#55ACEE"/>
<path d="M17.7222 2.44444C18.3972 2.44444 18.9444 1.89724 18.9444 1.22222C18.9444 0.547207 18.3972 0 17.7222 0C17.0472 0 16.5 0.547207 16.5 1.22222C16.5 1.89724 17.0472 2.44444 17.7222 2.44444Z" fill="#55ACEE"/>
<path d="M2.9725 17.8725L1.54372 14.4405L0.251831 18.1347L2.9725 17.8725ZM15.8889 3.0555L13.4445 3.66661L14.0556 1.22217L15.8889 3.0555Z" fill="#EA596E"/>
<path d="M19.5549 7.94453L22 4.88836L20.1667 3.66675L19.5549 7.94453Z" fill="#77B255"/>
</g>
<defs>
<clipPath id="clip0_350_1075">
<rect width="22" height="22" fill="white"/>
</clipPath>
</defs>
</svg>
