<svg width="22" height="22" viewBox="0 0 22 22" fill="none" xmlns="http://www.w3.org/2000/svg">
<g clip-path="url(#clip0_2348_582)">
<path d="M11 0C4.92525 0 0 4.92525 0 11C0 17.0748 4.92525 22 11 22C17.0748 22 22 17.0748 22 11C22 4.92525 17.0748 0 11 0ZM7.2435 6.13892H14.7565C16.1361 6.13892 17.0133 7.63125 16.3194 8.83392L11.682 16.8685C11.6127 16.988 11.5132 17.0872 11.3935 17.1562C11.2739 17.2251 11.1381 17.2614 11 17.2614C10.8619 17.2614 10.7261 17.2251 10.6065 17.1562C10.4868 17.0872 10.3873 16.988 10.318 16.8685L5.68242 8.83392C4.98758 7.62942 5.863 6.13892 7.2435 6.13892ZM11.6838 7.51025V14.4586L12.694 12.5079L15.1287 8.14825C15.1659 8.08313 15.1854 8.00932 15.185 7.93429C15.1846 7.85925 15.1644 7.78565 15.1265 7.72092C15.0885 7.65618 15.0342 7.60262 14.9689 7.56562C14.9036 7.52863 14.8297 7.50953 14.7547 7.51025H11.6838ZM7.24167 7.51208C7.1668 7.51127 7.09304 7.53024 7.02784 7.56707C6.96265 7.6039 6.90834 7.65728 6.87039 7.72183C6.83244 7.78638 6.81221 7.8598 6.81173 7.93467C6.81125 8.00955 6.83055 8.08322 6.86767 8.14825L9.30417 12.5061L10.3143 14.4586V7.51208H7.24167Z" fill="#55ACEE"/>
<path d="M11 0C4.92525 0 0 4.92525 0 11C0 17.0748 4.92525 22 11 22C17.0748 22 22 17.0748 22 11C22 4.92525 17.0748 0 11 0ZM7.2435 6.13892H14.7565C16.1361 6.13892 17.0133 7.63125 16.3194 8.83392L11.682 16.8685C11.6127 16.988 11.5132 17.0872 11.3935 17.1562C11.2739 17.2251 11.1381 17.2614 11 17.2614C10.8619 17.2614 10.7261 17.2251 10.6065 17.1562C10.4868 17.0872 10.3873 16.988 10.318 16.8685L5.68242 8.83392C4.98758 7.62942 5.863 6.13892 7.2435 6.13892ZM11.6838 7.51025V14.4586L12.694 12.5079L15.1287 8.14825C15.1659 8.08313 15.1854 8.00932 15.185 7.93429C15.1846 7.85925 15.1644 7.78565 15.1265 7.72092C15.0885 7.65618 15.0342 7.60262 14.9689 7.56562C14.9036 7.52863 14.8297 7.50953 14.7547 7.51025H11.6838ZM7.24167 7.51208C7.1668 7.51127 7.09304 7.53024 7.02784 7.56707C6.96265 7.6039 6.90834 7.65728 6.87039 7.72183C6.83244 7.78638 6.81221 7.8598 6.81173 7.93467C6.81125 8.00955 6.83055 8.08322 6.86767 8.14825L9.30417 12.5061L10.3143 14.4586V7.51208H7.24167Z" fill="url(#paint0_linear_2348_582)" fill-opacity="0.2"/>
</g>
<defs>
<linearGradient id="paint0_linear_2348_582" x1="11" y1="0" x2="11" y2="22" gradientUnits="userSpaceOnUse">
<stop stop-color="white" stop-opacity="0"/>
<stop offset="0.5" stop-color="white"/>
<stop offset="1" stop-color="white" stop-opacity="0"/>
</linearGradient>
<clipPath id="clip0_2348_582">
<rect width="22" height="22" fill="white"/>
</clipPath>
</defs>
</svg>
